<svg xmlns="http://www.w3.org/2000/svg">
	<symbol id="kakao-icon" viewBox="0 0 24 24">
		<path d="M11.9962 2.71423C6.47615 2.71423 2 6.2655 2 10.6479C2 13.4814 3.87007 15.9635 6.68644 17.3726L5.67255 21.0184C5.67255 21.0184 5.65377 21.1884 5.76267 21.2526C5.87157 21.3168 6.003 21.2677 6.003 21.2677C6.31844 21.2224 9.64551 18.8687 10.2276 18.4607C10.8021 18.5438 11.3992 18.5854 12.0038 18.5854C17.5238 18.5854 22 15.0341 22 10.6517C22 6.26928 17.5163 2.71423 11.9962 2.71423Z" fill="currentColor"/>
	</symbol>

	<symbol id="user" viewBox="0 0 24 24">
		<path d="M12.0001 15C8.83002 15 6.01089 16.5306 4.21609 18.906C3.8298 19.4172 3.63665 19.6728 3.64297 20.0183C3.64785 20.2852 3.81546 20.6219 4.02546 20.7867C4.29728 21 4.67396 21 5.42733 21H18.5729C19.3262 21 19.7029 21 19.9747 20.7867C20.1847 20.6219 20.3523 20.2852 20.3572 20.0183C20.3635 19.6728 20.1704 19.4172 19.7841 18.906C17.9893 16.5306 15.1702 15 12.0001 15Z" stroke="currentColor" stroke-width="2" stroke-linecap="round" stroke-linejoin="round" fill="none"/>
		<path d="M12.0001 12C14.4854 12 16.5001 9.98528 16.5001 7.5C16.5001 5.01472 14.4854 3 12.0001 3C9.51481 3 7.5001 5.01472 7.5001 7.5C7.5001 9.98528 9.51481 12 12.0001 12Z" stroke="currentColor" stroke-width="2" stroke-linecap="round" stroke-linejoin="round" fill="none"/>
	</symbol>

	<symbol id="activity" viewBox="0 0 24 24">
		<path d="M11 3.99998H6.8C5.11984 3.99998 4.27976 3.99998 3.63803 4.32696C3.07354 4.61458 2.6146 5.07353 2.32698 5.63801C2 6.27975 2 7.11983 2 8.79998V17.2C2 18.8801 2 19.7202 2.32698 20.362C2.6146 20.9264 3.07354 21.3854 3.63803 21.673C4.27976 22 5.11984 22 6.8 22H15.2C16.8802 22 17.7202 22 18.362 21.673C18.9265 21.3854 19.3854 20.9264 19.673 20.362C20 19.7202 20 18.8801 20 17.2V13M7.99997 16H9.67452C10.1637 16 10.4083 16 10.6385 15.9447C10.8425 15.8957 11.0376 15.8149 11.2166 15.7053C11.4184 15.5816 11.5914 15.4086 11.9373 15.0627L21.5 5.49998C22.3284 4.67156 22.3284 3.32841 21.5 2.49998C20.6716 1.67156 19.3284 1.67155 18.5 2.49998L8.93723 12.0627C8.59133 12.4086 8.41838 12.5816 8.29469 12.7834C8.18504 12.9624 8.10423 13.1574 8.05523 13.3615C7.99997 13.5917 7.99997 13.8363 7.99997 14.3255V16Z" stroke-width="2" stroke-linecap="round" stroke-linejoin="round" fill="none" stroke="currentColor"/>
	</symbol>

	<symbol id="download" viewBox="0 0 24 24">
		<path d="M21 21H3M18 11L12 17M12 17L6 11M12 17V3" stroke="currentColor" stroke-width="2" stroke-linecap="round" stroke-linejoin="round" fill="none"/>
	</symbol>

	<symbol id="arrow-back" viewBox="0 0 24 24">
		<path d="M7.82509 13L12.7251 17.9C12.9251 18.1 13.0211 18.3334 13.0131 18.6C13.0051 18.8667 12.9008 19.1 12.7001 19.3C12.5001 19.4834 12.2668 19.5794 12.0001 19.588C11.7334 19.5967 11.5001 19.5007 11.3001 19.3L4.70009 12.7C4.60009 12.6 4.52909 12.4917 4.48709 12.375C4.44509 12.2584 4.42475 12.1334 4.42609 12C4.42742 11.8667 4.44842 11.7417 4.48909 11.625C4.52975 11.5084 4.60042 11.4 4.70109 11.3L11.3011 4.70005C11.4844 4.51672 11.7138 4.42505 11.9891 4.42505C12.2644 4.42505 12.5018 4.51672 12.7011 4.70005C12.9011 4.90005 13.0011 5.13772 13.0011 5.41305C13.0011 5.68838 12.9011 5.92572 12.7011 6.12505L7.82509 11H19.0001C19.2834 11 19.5211 11.096 19.7131 11.288C19.9051 11.48 20.0008 11.7174 20.0001 12C19.9994 12.2827 19.9034 12.5204 19.7121 12.713C19.5208 12.9057 19.2834 13.0014 19.0001 13H7.82509Z" fill="currentColor"/>
	</symbol>

	<symbol id="menu" viewBox="0 0 24 24" >
		<path d="M4 18C3.71667 18 3.47934 17.904 3.288 17.712C3.09667 17.52 3.00067 17.2827 3 17C2.99934 16.7173 3.09534 16.48 3.288 16.288C3.48067 16.096 3.718 16 4 16H20C20.2833 16 20.521 16.096 20.713 16.288C20.905 16.48 21.0007 16.7173 21 17C20.9993 17.2827 20.9033 17.5203 20.712 17.713C20.5207 17.9057 20.2833 18.0013 20 18H4ZM4 13C3.71667 13 3.47934 12.904 3.288 12.712C3.09667 12.52 3.00067 12.2827 3 12C2.99934 11.7173 3.09534 11.48 3.288 11.288C3.48067 11.096 3.718 11 4 11H20C20.2833 11 20.521 11.096 20.713 11.288C20.905 11.48 21.0007 11.7173 21 12C20.9993 12.2827 20.9033 12.5203 20.712 12.713C20.5207 12.9057 20.2833 13.0013 20 13H4ZM4 8C3.71667 8 3.47934 7.904 3.288 7.712C3.09667 7.52 3.00067 7.28267 3 7C2.99934 6.71733 3.09534 6.48 3.288 6.288C3.48067 6.096 3.718 6 4 6H20C20.2833 6 20.521 6.096 20.713 6.288C20.905 6.48 21.0007 6.71733 21 7C20.9993 7.28267 20.9033 7.52033 20.712 7.713C20.5207 7.90567 20.2833 8.00133 20 8H4Z" fill="currentColor"/>
	</symbol>

	<symbol id="close" viewBox="0 0 24 24">
		<path d="M18 6L6 18M6 6L18 18" stroke="currentColor" stroke-width="2" stroke-linecap="round" stroke-linejoin="round" fill="none"/>
	</symbol>
</svg>